<svg id="Layer_1" data-name="Layer 1" xmlns="http://www.w3.org/2000/svg" xmlns:xlink="http://www.w3.org/1999/xlink" viewBox="0 0 582.82 557"><defs><style>.cls-1{fill:#fff;}.cls-2{fill:url(#linear-gradient);}.cls-3{fill:url(#linear-gradient-2);}.cls-4{fill:url(#linear-gradient-3);}.cls-5{fill:url(#linear-gradient-4);}.cls-6{fill:url(#linear-gradient-5);}.cls-7{fill:url(#linear-gradient-6);}</style><linearGradient id="linear-gradient" x1="233.67" y1="430.57" x2="353.17" y2="430.57" gradientUnits="userSpaceOnUse"><stop offset="0" stop-color="#00aeef"/><stop offset="1" stop-color="#21409a"/></linearGradient><linearGradient id="linear-gradient-2" x1="529.35" y1="430.57" x2="648.86" y2="430.57" gradientTransform="translate(1314.57 508.89) rotate(150)" gradientUnits="userSpaceOnUse"><stop offset="0" stop-color="#21409a"/><stop offset="1" stop-color="#00aeef"/></linearGradient><linearGradient id="linear-gradient-3" x1="152.93" y1="430.99" x2="729.6" y2="430.99" gradientUnits="userSpaceOnUse"><stop offset="0" stop-color="#009444"/><stop offset="1" stop-color="#8dc63f"/></linearGradient><linearGradient id="linear-gradient-4" x1="241.63" y1="239.01" x2="627.11" y2="239.01" xlink:href="#linear-gradient-3"/><linearGradient id="linear-gradient-5" y1="96.08" x2="582.82" y2="96.08" gradientUnits="userSpaceOnUse"><stop offset="0" stop-color="#8dc63f"/><stop offset="1" stop-color="#009444"/></linearGradient><linearGradient id="linear-gradient-6" x1="442.26" y1="486.74" x2="442.26" y2="608" gradientTransform="translate(735.91 1040.49) rotate(180)" gradientUnits="userSpaceOnUse"><stop offset="0" stop-color="#f26522"/><stop offset="1" stop-color="#fbb040"/></linearGradient></defs><circle class="cls-1" cx="133.45" cy="384.81" r="23.27"/><circle class="cls-1" cx="470.45" cy="434.81" r="23.27"/><path class="cls-2" d="M352.24,420h0a59.86,59.86,0,1,0,.93,10.62A60.77,60.77,0,0,0,352.24,420ZM276.1,407.44a13.37,13.37,0,1,1,13.37-13.37A13.37,13.37,0,0,1,276.1,407.44Z" transform="translate(-146.77 -14.48)"/><path class="cls-3" d="M619,482.31a59.79,59.79,0,0,0,26.86-70.53,60.51,60.51,0,0,0-5-11.09c-.74-1.28-1.51-2.52-2.34-3.72A59.75,59.75,0,1,0,619,482.31Zm-3.31-40.38a13.37,13.37,0,1,1-4.9,18.26A13.37,13.37,0,0,1,615.68,441.93Z" transform="translate(-146.77 -14.48)"/><path class="cls-4" d="M729.6,431A140.5,140.5,0,0,1,499.74,539.4l-22.8-23.8,0-.05-13.07-13.64-20.71-21.62L364.54,407.2,345,387.63a67.08,67.08,0,1,0-9.43,95.16,67.59,67.59,0,0,0,8.91-8.67L372.33,447l52,52-29.85,29.67-4.1,4.07A140.5,140.5,0,1,1,253.58,296.24l1.51-.44A140.29,140.29,0,0,1,372.68,315a136.9,136.9,0,0,1,13.54,10.52l29.07,29.07L495.4,429l19.74,20.61,14.15,14.78,24.14,23a67.16,67.16,0,1,0-15.74-99.9l-19.22,18.85L467,354.84l14.46-14.08h0l20.34-19.81h0A140.47,140.47,0,0,1,729.6,431Z" transform="translate(-146.77 -14.48)"/><path class="cls-5" d="M627.11,187c0,29.28-6.72,55.25-17.05,71.41a174.42,174.42,0,0,0-172.75,80.09,174.64,174.64,0,0,0-178.15-79.23c-10.61-16.11-17.53-42.43-17.53-72.18a167,167,0,0,1,6.51-47.5l76.67,31.18,102.93,41.85,116.38-44.05,76.51-29A167.52,167.52,0,0,1,627.11,187Z" transform="translate(-146.77 -14.48)"/><polygon class="cls-6" points="582.82 77.91 473.85 119.16 397.34 148.12 280.96 192.17 178.04 150.31 101.36 119.13 0 77.91 301.07 0 582.82 77.91"/><polygon class="cls-7" points="293.66 553.75 363.67 432.48 223.65 432.48 293.66 553.75"/></svg>